%TF.GenerationSoftware,KiCad,Pcbnew,8.0.9*%
%TF.CreationDate,2025-11-29T23:27:23-05:00*%
%TF.ProjectId,repositorio,7265706f-7369-4746-9f72-696f2e6b6963,rev?*%
%TF.SameCoordinates,Original*%
%TF.FileFunction,Drillmap*%
%TF.FilePolarity,Positive*%
%FSLAX45Y45*%
G04 Gerber Fmt 4.5, Leading zero omitted, Abs format (unit mm)*
G04 Created by KiCad (PCBNEW 8.0.9) date 2025-11-29 23:27:23*
%MOMM*%
%LPD*%
G01*
G04 APERTURE LIST*
%ADD10C,0.050000*%
%ADD11C,0.200000*%
G04 APERTURE END LIST*
D10*
X17750000Y-6650000D02*
X20150000Y-6650000D01*
X20150000Y-9850000D01*
X17750000Y-9850000D01*
X17750000Y-6650000D01*
D11*
X18008277Y-10163984D02*
X18008277Y-9963984D01*
X18008277Y-9963984D02*
X18055896Y-9963984D01*
X18055896Y-9963984D02*
X18084467Y-9973508D01*
X18084467Y-9973508D02*
X18103515Y-9992555D01*
X18103515Y-9992555D02*
X18113039Y-10011603D01*
X18113039Y-10011603D02*
X18122563Y-10049698D01*
X18122563Y-10049698D02*
X18122563Y-10078270D01*
X18122563Y-10078270D02*
X18113039Y-10116365D01*
X18113039Y-10116365D02*
X18103515Y-10135412D01*
X18103515Y-10135412D02*
X18084467Y-10154460D01*
X18084467Y-10154460D02*
X18055896Y-10163984D01*
X18055896Y-10163984D02*
X18008277Y-10163984D01*
X18208277Y-10163984D02*
X18208277Y-10030650D01*
X18208277Y-10068746D02*
X18217801Y-10049698D01*
X18217801Y-10049698D02*
X18227324Y-10040174D01*
X18227324Y-10040174D02*
X18246372Y-10030650D01*
X18246372Y-10030650D02*
X18265420Y-10030650D01*
X18332086Y-10163984D02*
X18332086Y-10030650D01*
X18332086Y-9963984D02*
X18322563Y-9973508D01*
X18322563Y-9973508D02*
X18332086Y-9983031D01*
X18332086Y-9983031D02*
X18341610Y-9973508D01*
X18341610Y-9973508D02*
X18332086Y-9963984D01*
X18332086Y-9963984D02*
X18332086Y-9983031D01*
X18455896Y-10163984D02*
X18436848Y-10154460D01*
X18436848Y-10154460D02*
X18427324Y-10135412D01*
X18427324Y-10135412D02*
X18427324Y-9963984D01*
X18560658Y-10163984D02*
X18541610Y-10154460D01*
X18541610Y-10154460D02*
X18532086Y-10135412D01*
X18532086Y-10135412D02*
X18532086Y-9963984D01*
X18789229Y-10163984D02*
X18789229Y-9963984D01*
X18789229Y-9963984D02*
X18855896Y-10106841D01*
X18855896Y-10106841D02*
X18922563Y-9963984D01*
X18922563Y-9963984D02*
X18922563Y-10163984D01*
X19103515Y-10163984D02*
X19103515Y-10059222D01*
X19103515Y-10059222D02*
X19093991Y-10040174D01*
X19093991Y-10040174D02*
X19074944Y-10030650D01*
X19074944Y-10030650D02*
X19036848Y-10030650D01*
X19036848Y-10030650D02*
X19017801Y-10040174D01*
X19103515Y-10154460D02*
X19084467Y-10163984D01*
X19084467Y-10163984D02*
X19036848Y-10163984D01*
X19036848Y-10163984D02*
X19017801Y-10154460D01*
X19017801Y-10154460D02*
X19008277Y-10135412D01*
X19008277Y-10135412D02*
X19008277Y-10116365D01*
X19008277Y-10116365D02*
X19017801Y-10097317D01*
X19017801Y-10097317D02*
X19036848Y-10087793D01*
X19036848Y-10087793D02*
X19084467Y-10087793D01*
X19084467Y-10087793D02*
X19103515Y-10078270D01*
X19198753Y-10030650D02*
X19198753Y-10230650D01*
X19198753Y-10040174D02*
X19217801Y-10030650D01*
X19217801Y-10030650D02*
X19255896Y-10030650D01*
X19255896Y-10030650D02*
X19274944Y-10040174D01*
X19274944Y-10040174D02*
X19284467Y-10049698D01*
X19284467Y-10049698D02*
X19293991Y-10068746D01*
X19293991Y-10068746D02*
X19293991Y-10125889D01*
X19293991Y-10125889D02*
X19284467Y-10144936D01*
X19284467Y-10144936D02*
X19274944Y-10154460D01*
X19274944Y-10154460D02*
X19255896Y-10163984D01*
X19255896Y-10163984D02*
X19217801Y-10163984D01*
X19217801Y-10163984D02*
X19198753Y-10154460D01*
X19379705Y-10144936D02*
X19389229Y-10154460D01*
X19389229Y-10154460D02*
X19379705Y-10163984D01*
X19379705Y-10163984D02*
X19370182Y-10154460D01*
X19370182Y-10154460D02*
X19379705Y-10144936D01*
X19379705Y-10144936D02*
X19379705Y-10163984D01*
X19379705Y-10040174D02*
X19389229Y-10049698D01*
X19389229Y-10049698D02*
X19379705Y-10059222D01*
X19379705Y-10059222D02*
X19370182Y-10049698D01*
X19370182Y-10049698D02*
X19379705Y-10040174D01*
X19379705Y-10040174D02*
X19379705Y-10059222D01*
M02*
