G75*
G70*
%OFA0B0*%
%FSLAX25Y25*%
%IPPOS*%
%LPD*%
%AMOC8*
5,1,8,0,0,1.08239X$1,22.5*
%
%ADD14C,0.00787*%
%ADD30C,0.00394*%
X0000000Y0000000D02*
%LPD*%
G01*
D14*
X0027953Y0084646D02*
X0063780Y0084646D01*
X0027953Y0072441D02*
X0027953Y0076378D01*
X0027953Y0072441D02*
X0063780Y0072441D01*
X0027559Y0072047D02*
G01*
G75*
G36*
X0045965Y0077596D02*
X0045529Y0077596D01*
X0045529Y0078122D01*
X0045327Y0078334D01*
X0044914Y0077596D01*
X0044444Y0077596D01*
X0045047Y0078639D01*
X0044484Y0079241D01*
X0045020Y0079241D01*
X0045529Y0078661D01*
X0045529Y0079866D01*
X0045965Y0079866D01*
X0045965Y0077596D01*
D02*
G37*
G36*
X0038565Y0077596D02*
X0038129Y0077596D01*
X0038129Y0078122D01*
X0037928Y0078334D01*
X0037514Y0077596D01*
X0037045Y0077596D01*
X0037647Y0078639D01*
X0037084Y0079241D01*
X0037620Y0079241D01*
X0038129Y0078661D01*
X0038129Y0079866D01*
X0038565Y0079866D01*
X0038565Y0077596D01*
D02*
G37*
G36*
X0039679Y0079276D02*
X0039743Y0079268D01*
X0039802Y0079256D01*
X0039859Y0079244D01*
X0039910Y0079224D01*
X0039957Y0079207D01*
X0040002Y0079185D01*
X0040041Y0079165D01*
X0040075Y0079143D01*
X0040107Y0079121D01*
X0040132Y0079104D01*
X0040154Y0079087D01*
X0040171Y0079072D01*
X0040184Y0079059D01*
X0040191Y0079052D01*
X0040193Y0079050D01*
X0040230Y0079005D01*
X0040265Y0078958D01*
X0040292Y0078907D01*
X0040316Y0078855D01*
X0040338Y0078801D01*
X0040356Y0078749D01*
X0040368Y0078698D01*
X0040380Y0078649D01*
X0040390Y0078599D01*
X0040395Y0078555D01*
X0040400Y0078516D01*
X0040405Y0078481D01*
X0040405Y0078454D01*
X0040407Y0078432D01*
X0040407Y0078420D01*
X0040407Y0078415D01*
X0040405Y0078341D01*
X0040398Y0078272D01*
X0040388Y0078208D01*
X0040373Y0078147D01*
X0040358Y0078090D01*
X0040338Y0078038D01*
X0040321Y0077992D01*
X0040299Y0077950D01*
X0040279Y0077913D01*
X0040260Y0077879D01*
X0040243Y0077851D01*
X0040228Y0077827D01*
X0040213Y0077810D01*
X0040203Y0077795D01*
X0040196Y0077788D01*
X0040193Y0077785D01*
X0040152Y0077746D01*
X0040107Y0077711D01*
X0040061Y0077679D01*
X0040014Y0077655D01*
X0039965Y0077633D01*
X0039918Y0077613D01*
X0039871Y0077598D01*
X0039827Y0077588D01*
X0039785Y0077578D01*
X0039746Y0077571D01*
X0039709Y0077566D01*
X0039679Y0077561D01*
X0039655Y0077561D01*
X0039635Y0077559D01*
X0039620Y0077559D01*
X0039561Y0077561D01*
X0039507Y0077566D01*
X0039455Y0077574D01*
X0039409Y0077581D01*
X0039362Y0077593D01*
X0039320Y0077606D01*
X0039283Y0077618D01*
X0039249Y0077633D01*
X0039219Y0077647D01*
X0039192Y0077660D01*
X0039170Y0077672D01*
X0039150Y0077684D01*
X0039136Y0077692D01*
X0039123Y0077699D01*
X0039118Y0077704D01*
X0039116Y0077706D01*
X0039081Y0077736D01*
X0039049Y0077768D01*
X0039022Y0077802D01*
X0038995Y0077839D01*
X0038971Y0077876D01*
X0038951Y0077913D01*
X0038917Y0077984D01*
X0038902Y0078019D01*
X0038890Y0078051D01*
X0038880Y0078078D01*
X0038872Y0078102D01*
X0038865Y0078125D01*
X0038860Y0078139D01*
X0038858Y0078149D01*
X0038858Y0078152D01*
X0039286Y0078226D01*
X0039300Y0078166D01*
X0039318Y0078115D01*
X0039337Y0078073D01*
X0039354Y0078038D01*
X0039372Y0078014D01*
X0039387Y0077997D01*
X0039396Y0077984D01*
X0039399Y0077982D01*
X0039431Y0077960D01*
X0039463Y0077943D01*
X0039497Y0077930D01*
X0039529Y0077923D01*
X0039556Y0077918D01*
X0039581Y0077913D01*
X0039601Y0077913D01*
X0039630Y0077916D01*
X0039659Y0077918D01*
X0039714Y0077933D01*
X0039758Y0077952D01*
X0039795Y0077975D01*
X0039827Y0077997D01*
X0039849Y0078014D01*
X0039861Y0078029D01*
X0039866Y0078031D01*
X0039866Y0078034D01*
X0039883Y0078058D01*
X0039898Y0078085D01*
X0039910Y0078117D01*
X0039923Y0078149D01*
X0039937Y0078218D01*
X0039950Y0078285D01*
X0039955Y0078319D01*
X0039957Y0078348D01*
X0039960Y0078376D01*
X0039960Y0078400D01*
X0039962Y0078420D01*
X0039962Y0078435D01*
X0039962Y0078444D01*
X0039962Y0078447D01*
X0039962Y0078494D01*
X0039957Y0078538D01*
X0039952Y0078580D01*
X0039947Y0078617D01*
X0039940Y0078651D01*
X0039933Y0078681D01*
X0039923Y0078710D01*
X0039913Y0078735D01*
X0039906Y0078754D01*
X0039896Y0078774D01*
X0039888Y0078789D01*
X0039881Y0078801D01*
X0039876Y0078811D01*
X0039871Y0078818D01*
X0039866Y0078821D01*
X0039866Y0078823D01*
X0039846Y0078843D01*
X0039827Y0078860D01*
X0039785Y0078890D01*
X0039743Y0078909D01*
X0039701Y0078922D01*
X0039664Y0078931D01*
X0039647Y0078934D01*
X0039635Y0078934D01*
X0039623Y0078936D01*
X0039608Y0078936D01*
X0039564Y0078934D01*
X0039524Y0078927D01*
X0039490Y0078914D01*
X0039463Y0078904D01*
X0039438Y0078892D01*
X0039423Y0078880D01*
X0039411Y0078872D01*
X0039409Y0078870D01*
X0039382Y0078843D01*
X0039359Y0078813D01*
X0039342Y0078781D01*
X0039327Y0078752D01*
X0039320Y0078725D01*
X0039313Y0078700D01*
X0039308Y0078686D01*
X0039308Y0078683D01*
X0039308Y0078681D01*
X0038880Y0078757D01*
X0038895Y0078804D01*
X0038914Y0078850D01*
X0038931Y0078890D01*
X0038953Y0078929D01*
X0038973Y0078963D01*
X0038995Y0078995D01*
X0039017Y0079025D01*
X0039037Y0079052D01*
X0039057Y0079074D01*
X0039074Y0079094D01*
X0039091Y0079111D01*
X0039106Y0079123D01*
X0039118Y0079136D01*
X0039128Y0079143D01*
X0039133Y0079145D01*
X0039136Y0079148D01*
X0039170Y0079170D01*
X0039207Y0079192D01*
X0039246Y0079210D01*
X0039286Y0079224D01*
X0039364Y0079246D01*
X0039441Y0079261D01*
X0039475Y0079268D01*
X0039510Y0079271D01*
X0039536Y0079273D01*
X0039564Y0079276D01*
X0039583Y0079278D01*
X0039613Y0079278D01*
X0039679Y0079276D01*
D02*
G37*
G36*
X0043305Y0079276D02*
X0043362Y0079266D01*
X0043416Y0079254D01*
X0043468Y0079234D01*
X0043514Y0079214D01*
X0043559Y0079190D01*
X0043600Y0079165D01*
X0043637Y0079138D01*
X0043672Y0079111D01*
X0043699Y0079087D01*
X0043726Y0079062D01*
X0043746Y0079042D01*
X0043763Y0079025D01*
X0043775Y0079010D01*
X0043783Y0079000D01*
X0043785Y0078998D01*
X0043785Y0079241D01*
X0044188Y0079241D01*
X0044188Y0077596D01*
X0043753Y0077596D01*
X0043753Y0078341D01*
X0043753Y0078390D01*
X0043751Y0078437D01*
X0043751Y0078479D01*
X0043748Y0078516D01*
X0043746Y0078550D01*
X0043743Y0078582D01*
X0043741Y0078609D01*
X0043736Y0078634D01*
X0043733Y0078653D01*
X0043731Y0078671D01*
X0043728Y0078686D01*
X0043726Y0078698D01*
X0043723Y0078708D01*
X0043723Y0078713D01*
X0043721Y0078718D01*
X0043706Y0078754D01*
X0043689Y0078786D01*
X0043669Y0078816D01*
X0043650Y0078838D01*
X0043630Y0078858D01*
X0043615Y0078870D01*
X0043605Y0078880D01*
X0043600Y0078882D01*
X0043566Y0078904D01*
X0043529Y0078919D01*
X0043495Y0078931D01*
X0043465Y0078939D01*
X0043436Y0078944D01*
X0043416Y0078946D01*
X0043396Y0078946D01*
X0043364Y0078944D01*
X0043337Y0078939D01*
X0043313Y0078931D01*
X0043291Y0078924D01*
X0043273Y0078917D01*
X0043258Y0078909D01*
X0043251Y0078904D01*
X0043249Y0078902D01*
X0043226Y0078885D01*
X0043207Y0078865D01*
X0043192Y0078843D01*
X0043180Y0078823D01*
X0043170Y0078806D01*
X0043163Y0078791D01*
X0043158Y0078781D01*
X0043158Y0078779D01*
X0043153Y0078762D01*
X0043148Y0078742D01*
X0043143Y0078720D01*
X0043140Y0078693D01*
X0043135Y0078636D01*
X0043131Y0078577D01*
X0043131Y0078523D01*
X0043128Y0078499D01*
X0043128Y0078479D01*
X0043128Y0078459D01*
X0043128Y0078447D01*
X0043128Y0078437D01*
X0043128Y0078435D01*
X0043128Y0077596D01*
X0042693Y0077596D01*
X0042693Y0078617D01*
X0042693Y0078686D01*
X0042698Y0078744D01*
X0042700Y0078794D01*
X0042705Y0078835D01*
X0042710Y0078867D01*
X0042712Y0078890D01*
X0042717Y0078904D01*
X0042717Y0078909D01*
X0042727Y0078946D01*
X0042742Y0078981D01*
X0042754Y0079013D01*
X0042769Y0079040D01*
X0042784Y0079062D01*
X0042794Y0079077D01*
X0042801Y0079089D01*
X0042803Y0079091D01*
X0042828Y0079121D01*
X0042858Y0079145D01*
X0042887Y0079170D01*
X0042917Y0079187D01*
X0042941Y0079205D01*
X0042963Y0079214D01*
X0042978Y0079222D01*
X0042980Y0079224D01*
X0042983Y0079224D01*
X0043027Y0079241D01*
X0043074Y0079256D01*
X0043118Y0079266D01*
X0043158Y0079271D01*
X0043195Y0079276D01*
X0043222Y0079278D01*
X0043246Y0079278D01*
X0043305Y0079276D01*
D02*
G37*
G36*
X0041593Y0079273D02*
X0041674Y0079261D01*
X0041748Y0079244D01*
X0041782Y0079234D01*
X0041814Y0079224D01*
X0041842Y0079214D01*
X0041866Y0079205D01*
X0041888Y0079195D01*
X0041908Y0079187D01*
X0041923Y0079180D01*
X0041933Y0079175D01*
X0041940Y0079173D01*
X0041942Y0079170D01*
X0042011Y0079126D01*
X0042070Y0079077D01*
X0042122Y0079025D01*
X0042166Y0078976D01*
X0042198Y0078931D01*
X0042213Y0078912D01*
X0042223Y0078895D01*
X0042230Y0078880D01*
X0042238Y0078870D01*
X0042240Y0078863D01*
X0042242Y0078860D01*
X0042262Y0078823D01*
X0042277Y0078784D01*
X0042304Y0078710D01*
X0042321Y0078639D01*
X0042336Y0078575D01*
X0042339Y0078545D01*
X0042343Y0078521D01*
X0042346Y0078496D01*
X0042346Y0078476D01*
X0042348Y0078462D01*
X0042348Y0078449D01*
X0042348Y0078442D01*
X0042348Y0078439D01*
X0042346Y0078388D01*
X0042343Y0078339D01*
X0042339Y0078289D01*
X0042331Y0078245D01*
X0042324Y0078203D01*
X0042314Y0078164D01*
X0042304Y0078127D01*
X0042294Y0078093D01*
X0042284Y0078063D01*
X0042277Y0078036D01*
X0042267Y0078014D01*
X0042260Y0077994D01*
X0042252Y0077979D01*
X0042247Y0077970D01*
X0042242Y0077962D01*
X0042242Y0077960D01*
X0042198Y0077891D01*
X0042149Y0077829D01*
X0042097Y0077778D01*
X0042048Y0077736D01*
X0042001Y0077704D01*
X0041984Y0077689D01*
X0041967Y0077679D01*
X0041952Y0077670D01*
X0041942Y0077665D01*
X0041935Y0077662D01*
X0041933Y0077660D01*
X0041856Y0077625D01*
X0041780Y0077601D01*
X0041706Y0077583D01*
X0041640Y0077571D01*
X0041610Y0077566D01*
X0041583Y0077564D01*
X0041561Y0077561D01*
X0041541Y0077561D01*
X0041524Y0077559D01*
X0041502Y0077559D01*
X0041436Y0077561D01*
X0041372Y0077569D01*
X0041310Y0077581D01*
X0041254Y0077598D01*
X0041200Y0077615D01*
X0041150Y0077635D01*
X0041104Y0077657D01*
X0041062Y0077682D01*
X0041025Y0077704D01*
X0040993Y0077726D01*
X0040963Y0077746D01*
X0040941Y0077765D01*
X0040922Y0077780D01*
X0040907Y0077792D01*
X0040899Y0077800D01*
X0040897Y0077802D01*
X0040855Y0077849D01*
X0040818Y0077901D01*
X0040786Y0077950D01*
X0040757Y0078004D01*
X0040735Y0078056D01*
X0040715Y0078107D01*
X0040698Y0078157D01*
X0040685Y0078206D01*
X0040675Y0078250D01*
X0040668Y0078292D01*
X0040663Y0078329D01*
X0040658Y0078361D01*
X0040658Y0078385D01*
X0040656Y0078405D01*
X0040656Y0078417D01*
X0040656Y0078422D01*
X0040658Y0078491D01*
X0040666Y0078555D01*
X0040678Y0078617D01*
X0040693Y0078673D01*
X0040710Y0078727D01*
X0040732Y0078779D01*
X0040752Y0078826D01*
X0040774Y0078867D01*
X0040798Y0078904D01*
X0040818Y0078939D01*
X0040838Y0078966D01*
X0040858Y0078991D01*
X0040872Y0079010D01*
X0040885Y0079023D01*
X0040892Y0079032D01*
X0040895Y0079035D01*
X0040941Y0079077D01*
X0040988Y0079116D01*
X0041040Y0079148D01*
X0041091Y0079175D01*
X0041140Y0079200D01*
X0041192Y0079219D01*
X0041241Y0079234D01*
X0041288Y0079249D01*
X0041332Y0079259D01*
X0041374Y0079266D01*
X0041411Y0079271D01*
X0041443Y0079273D01*
X0041468Y0079276D01*
X0041487Y0079278D01*
X0041549Y0079278D01*
X0041593Y0079273D01*
D02*
G37*
G36*
X0050881Y0083224D02*
X0050932Y0083219D01*
X0050981Y0083212D01*
X0051025Y0083203D01*
X0051069Y0083191D01*
X0051108Y0083180D01*
X0051143Y0083166D01*
X0051178Y0083152D01*
X0051208Y0083138D01*
X0051234Y0083124D01*
X0051257Y0083112D01*
X0051275Y0083101D01*
X0051289Y0083091D01*
X0051301Y0083085D01*
X0051308Y0083080D01*
X0051310Y0083077D01*
X0051345Y0083047D01*
X0051375Y0083015D01*
X0051403Y0082978D01*
X0051426Y0082938D01*
X0051447Y0082899D01*
X0051466Y0082857D01*
X0051482Y0082818D01*
X0051496Y0082778D01*
X0051507Y0082741D01*
X0051517Y0082706D01*
X0051524Y0082674D01*
X0051528Y0082646D01*
X0051533Y0082623D01*
X0051535Y0082604D01*
X0051538Y0082595D01*
X0051538Y0082590D01*
X0051129Y0082551D01*
X0051127Y0082583D01*
X0051122Y0082613D01*
X0051111Y0082667D01*
X0051097Y0082711D01*
X0051083Y0082746D01*
X0051067Y0082774D01*
X0051055Y0082792D01*
X0051046Y0082801D01*
X0051043Y0082806D01*
X0051013Y0082832D01*
X0050978Y0082853D01*
X0050944Y0082866D01*
X0050911Y0082876D01*
X0050881Y0082880D01*
X0050858Y0082885D01*
X0050837Y0082885D01*
X0050791Y0082883D01*
X0050751Y0082873D01*
X0050716Y0082862D01*
X0050686Y0082848D01*
X0050663Y0082834D01*
X0050647Y0082822D01*
X0050635Y0082813D01*
X0050633Y0082811D01*
X0050607Y0082781D01*
X0050589Y0082746D01*
X0050577Y0082711D01*
X0050568Y0082679D01*
X0050563Y0082646D01*
X0050558Y0082623D01*
X0050558Y0082613D01*
X0050558Y0082607D01*
X0050558Y0082602D01*
X0050558Y0082600D01*
X0050563Y0082553D01*
X0050572Y0082507D01*
X0050586Y0082465D01*
X0050600Y0082428D01*
X0050616Y0082395D01*
X0050630Y0082370D01*
X0050637Y0082361D01*
X0050640Y0082354D01*
X0050644Y0082351D01*
X0050644Y0082349D01*
X0050658Y0082330D01*
X0050677Y0082307D01*
X0050700Y0082282D01*
X0050723Y0082256D01*
X0050779Y0082198D01*
X0050839Y0082140D01*
X0050867Y0082112D01*
X0050895Y0082084D01*
X0050918Y0082061D01*
X0050941Y0082041D01*
X0050960Y0082024D01*
X0050974Y0082010D01*
X0050983Y0082001D01*
X0050985Y0081999D01*
X0051048Y0081941D01*
X0051104Y0081885D01*
X0051157Y0081832D01*
X0051203Y0081783D01*
X0051245Y0081739D01*
X0051282Y0081695D01*
X0051317Y0081658D01*
X0051345Y0081623D01*
X0051370Y0081590D01*
X0051391Y0081565D01*
X0051410Y0081539D01*
X0051424Y0081521D01*
X0051433Y0081507D01*
X0051442Y0081495D01*
X0051445Y0081488D01*
X0051447Y0081486D01*
X0051486Y0081414D01*
X0051517Y0081342D01*
X0051542Y0081272D01*
X0051561Y0081210D01*
X0051568Y0081182D01*
X0051572Y0081157D01*
X0051577Y0081133D01*
X0051582Y0081115D01*
X0051584Y0081099D01*
X0051584Y0081087D01*
X0051586Y0081080D01*
X0051586Y0081078D01*
X0050148Y0081078D01*
X0050148Y0081458D01*
X0050964Y0081458D01*
X0050937Y0081498D01*
X0050923Y0081516D01*
X0050911Y0081535D01*
X0050899Y0081549D01*
X0050890Y0081560D01*
X0050883Y0081567D01*
X0050881Y0081569D01*
X0050869Y0081581D01*
X0050856Y0081597D01*
X0050839Y0081614D01*
X0050821Y0081632D01*
X0050781Y0081672D01*
X0050739Y0081711D01*
X0050700Y0081748D01*
X0050681Y0081764D01*
X0050665Y0081778D01*
X0050654Y0081790D01*
X0050644Y0081799D01*
X0050637Y0081804D01*
X0050635Y0081806D01*
X0050600Y0081839D01*
X0050568Y0081869D01*
X0050538Y0081899D01*
X0050510Y0081924D01*
X0050487Y0081950D01*
X0050463Y0081971D01*
X0050445Y0081992D01*
X0050426Y0082010D01*
X0050401Y0082041D01*
X0050380Y0082061D01*
X0050371Y0082075D01*
X0050366Y0082080D01*
X0050327Y0082133D01*
X0050292Y0082184D01*
X0050264Y0082231D01*
X0050241Y0082270D01*
X0050224Y0082305D01*
X0050218Y0082319D01*
X0050210Y0082330D01*
X0050206Y0082340D01*
X0050204Y0082349D01*
X0050201Y0082351D01*
X0050201Y0082354D01*
X0050183Y0082402D01*
X0050171Y0082451D01*
X0050162Y0082498D01*
X0050155Y0082542D01*
X0050150Y0082576D01*
X0050150Y0082593D01*
X0050148Y0082604D01*
X0050148Y0082616D01*
X0050148Y0082623D01*
X0050148Y0082627D01*
X0050148Y0082630D01*
X0050150Y0082676D01*
X0050155Y0082720D01*
X0050164Y0082762D01*
X0050176Y0082804D01*
X0050190Y0082841D01*
X0050206Y0082876D01*
X0050222Y0082908D01*
X0050238Y0082936D01*
X0050257Y0082964D01*
X0050273Y0082987D01*
X0050289Y0083008D01*
X0050303Y0083024D01*
X0050315Y0083036D01*
X0050324Y0083047D01*
X0050329Y0083052D01*
X0050331Y0083054D01*
X0050366Y0083085D01*
X0050405Y0083110D01*
X0050445Y0083133D01*
X0050484Y0083154D01*
X0050526Y0083170D01*
X0050568Y0083184D01*
X0050607Y0083196D01*
X0050647Y0083205D01*
X0050684Y0083212D01*
X0050719Y0083217D01*
X0050749Y0083221D01*
X0050774Y0083224D01*
X0050797Y0083226D01*
X0050828Y0083226D01*
X0050881Y0083224D01*
D02*
G37*
G36*
X0052278Y0081078D02*
X0051867Y0081078D01*
X0051867Y0081488D01*
X0052278Y0081488D01*
X0052278Y0081078D01*
D02*
G37*
G36*
X0053391Y0083224D02*
X0053445Y0083217D01*
X0053496Y0083205D01*
X0053542Y0083191D01*
X0053586Y0083175D01*
X0053626Y0083156D01*
X0053663Y0083136D01*
X0053695Y0083117D01*
X0053723Y0083096D01*
X0053749Y0083075D01*
X0053769Y0083057D01*
X0053788Y0083040D01*
X0053802Y0083026D01*
X0053811Y0083015D01*
X0053818Y0083008D01*
X0053820Y0083006D01*
X0053858Y0082952D01*
X0053890Y0082892D01*
X0053918Y0082827D01*
X0053941Y0082757D01*
X0053962Y0082685D01*
X0053978Y0082613D01*
X0053992Y0082542D01*
X0054004Y0082470D01*
X0054011Y0082402D01*
X0054018Y0082340D01*
X0054022Y0082284D01*
X0054027Y0082233D01*
X0054027Y0082212D01*
X0054027Y0082194D01*
X0054029Y0082177D01*
X0054029Y0082161D01*
X0054029Y0082152D01*
X0054029Y0082143D01*
X0054029Y0082138D01*
X0054029Y0082136D01*
X0054027Y0082024D01*
X0054020Y0081922D01*
X0054011Y0081827D01*
X0053999Y0081741D01*
X0053985Y0081662D01*
X0053969Y0081593D01*
X0053953Y0081530D01*
X0053934Y0081474D01*
X0053916Y0081428D01*
X0053899Y0081386D01*
X0053883Y0081351D01*
X0053869Y0081324D01*
X0053858Y0081303D01*
X0053846Y0081289D01*
X0053841Y0081280D01*
X0053839Y0081277D01*
X0053802Y0081235D01*
X0053762Y0081198D01*
X0053721Y0081166D01*
X0053679Y0081138D01*
X0053637Y0081117D01*
X0053595Y0081096D01*
X0053556Y0081080D01*
X0053517Y0081068D01*
X0053479Y0081059D01*
X0053445Y0081050D01*
X0053414Y0081045D01*
X0053387Y0081043D01*
X0053366Y0081040D01*
X0053350Y0081038D01*
X0053335Y0081038D01*
X0053280Y0081040D01*
X0053227Y0081048D01*
X0053175Y0081059D01*
X0053129Y0081073D01*
X0053085Y0081089D01*
X0053045Y0081108D01*
X0053008Y0081126D01*
X0052976Y0081147D01*
X0052948Y0081168D01*
X0052923Y0081187D01*
X0052899Y0081205D01*
X0052883Y0081221D01*
X0052869Y0081235D01*
X0052858Y0081247D01*
X0052853Y0081254D01*
X0052851Y0081256D01*
X0052814Y0081310D01*
X0052781Y0081370D01*
X0052753Y0081437D01*
X0052728Y0081505D01*
X0052709Y0081576D01*
X0052691Y0081651D01*
X0052677Y0081723D01*
X0052665Y0081794D01*
X0052658Y0081862D01*
X0052651Y0081924D01*
X0052646Y0081982D01*
X0052642Y0082031D01*
X0052642Y0082054D01*
X0052642Y0082073D01*
X0052639Y0082089D01*
X0052639Y0082105D01*
X0052639Y0082115D01*
X0052639Y0082124D01*
X0052639Y0082129D01*
X0052639Y0082131D01*
X0052642Y0082240D01*
X0052649Y0082342D01*
X0052658Y0082437D01*
X0052672Y0082523D01*
X0052688Y0082602D01*
X0052705Y0082674D01*
X0052725Y0082739D01*
X0052744Y0082794D01*
X0052762Y0082845D01*
X0052781Y0082887D01*
X0052800Y0082924D01*
X0052816Y0082952D01*
X0052830Y0082975D01*
X0052839Y0082992D01*
X0052846Y0083001D01*
X0052848Y0083003D01*
X0052883Y0083043D01*
X0052920Y0083077D01*
X0052960Y0083108D01*
X0052999Y0083133D01*
X0053039Y0083154D01*
X0053080Y0083173D01*
X0053120Y0083187D01*
X0053157Y0083198D01*
X0053194Y0083207D01*
X0053229Y0083214D01*
X0053259Y0083219D01*
X0053284Y0083224D01*
X0053305Y0083224D01*
X0053322Y0083226D01*
X0053335Y0083226D01*
X0053391Y0083224D01*
D02*
G37*
%LPC*%
G36*
X0041522Y0078924D02*
X0041505Y0078924D01*
X0041473Y0078922D01*
X0041443Y0078919D01*
X0041389Y0078904D01*
X0041340Y0078882D01*
X0041298Y0078860D01*
X0041263Y0078835D01*
X0041239Y0078813D01*
X0041231Y0078806D01*
X0041224Y0078799D01*
X0041222Y0078796D01*
X0041219Y0078794D01*
X0041200Y0078769D01*
X0041180Y0078740D01*
X0041153Y0078681D01*
X0041131Y0078619D01*
X0041118Y0078558D01*
X0041113Y0078530D01*
X0041109Y0078503D01*
X0041106Y0078481D01*
X0041106Y0078459D01*
X0041104Y0078444D01*
X0041104Y0078430D01*
X0041104Y0078422D01*
X0041104Y0078420D01*
X0041104Y0078376D01*
X0041109Y0078331D01*
X0041113Y0078292D01*
X0041121Y0078255D01*
X0041131Y0078223D01*
X0041140Y0078191D01*
X0041150Y0078162D01*
X0041160Y0078137D01*
X0041172Y0078115D01*
X0041182Y0078095D01*
X0041192Y0078078D01*
X0041202Y0078066D01*
X0041209Y0078056D01*
X0041214Y0078048D01*
X0041217Y0078043D01*
X0041219Y0078041D01*
X0041241Y0078019D01*
X0041263Y0077999D01*
X0041288Y0077982D01*
X0041313Y0077967D01*
X0041359Y0077945D01*
X0041406Y0077930D01*
X0041445Y0077920D01*
X0041463Y0077918D01*
X0041475Y0077916D01*
X0041487Y0077913D01*
X0041505Y0077913D01*
X0041536Y0077916D01*
X0041566Y0077918D01*
X0041620Y0077933D01*
X0041669Y0077952D01*
X0041711Y0077977D01*
X0041743Y0078002D01*
X0041770Y0078021D01*
X0041778Y0078029D01*
X0041785Y0078036D01*
X0041787Y0078038D01*
X0041790Y0078041D01*
X0041810Y0078066D01*
X0041827Y0078095D01*
X0041856Y0078154D01*
X0041876Y0078218D01*
X0041888Y0078277D01*
X0041893Y0078307D01*
X0041898Y0078334D01*
X0041901Y0078356D01*
X0041901Y0078378D01*
X0041903Y0078393D01*
X0041903Y0078408D01*
X0041903Y0078415D01*
X0041903Y0078417D01*
X0041901Y0078462D01*
X0041898Y0078503D01*
X0041893Y0078543D01*
X0041886Y0078580D01*
X0041876Y0078614D01*
X0041866Y0078644D01*
X0041856Y0078673D01*
X0041847Y0078698D01*
X0041837Y0078720D01*
X0041827Y0078740D01*
X0041817Y0078757D01*
X0041807Y0078769D01*
X0041800Y0078779D01*
X0041795Y0078789D01*
X0041790Y0078791D01*
X0041790Y0078794D01*
X0041768Y0078816D01*
X0041743Y0078838D01*
X0041721Y0078855D01*
X0041696Y0078870D01*
X0041650Y0078892D01*
X0041603Y0078907D01*
X0041564Y0078917D01*
X0041546Y0078919D01*
X0041532Y0078922D01*
X0041522Y0078924D01*
D02*
G37*
G36*
X0053347Y0082885D02*
X0053335Y0082885D01*
X0053308Y0082883D01*
X0053284Y0082878D01*
X0053261Y0082869D01*
X0053240Y0082862D01*
X0053227Y0082853D01*
X0053213Y0082843D01*
X0053206Y0082838D01*
X0053203Y0082836D01*
X0053182Y0082815D01*
X0053164Y0082787D01*
X0053148Y0082757D01*
X0053134Y0082725D01*
X0053122Y0082695D01*
X0053115Y0082672D01*
X0053113Y0082662D01*
X0053111Y0082655D01*
X0053108Y0082651D01*
X0053108Y0082648D01*
X0053101Y0082618D01*
X0053094Y0082586D01*
X0053090Y0082549D01*
X0053085Y0082507D01*
X0053078Y0082423D01*
X0053073Y0082337D01*
X0053071Y0082296D01*
X0053071Y0082258D01*
X0053069Y0082221D01*
X0053069Y0082191D01*
X0053069Y0082166D01*
X0053069Y0082147D01*
X0053069Y0082136D01*
X0053069Y0082131D01*
X0053069Y0082064D01*
X0053071Y0081999D01*
X0053073Y0081941D01*
X0053076Y0081887D01*
X0053078Y0081839D01*
X0053083Y0081794D01*
X0053087Y0081755D01*
X0053090Y0081720D01*
X0053094Y0081690D01*
X0053099Y0081665D01*
X0053104Y0081644D01*
X0053106Y0081625D01*
X0053108Y0081611D01*
X0053111Y0081602D01*
X0053113Y0081597D01*
X0053113Y0081595D01*
X0053127Y0081553D01*
X0053141Y0081516D01*
X0053155Y0081488D01*
X0053171Y0081465D01*
X0053182Y0081446D01*
X0053194Y0081435D01*
X0053201Y0081428D01*
X0053203Y0081426D01*
X0053227Y0081409D01*
X0053247Y0081398D01*
X0053271Y0081391D01*
X0053291Y0081386D01*
X0053310Y0081382D01*
X0053324Y0081379D01*
X0053335Y0081379D01*
X0053363Y0081382D01*
X0053387Y0081386D01*
X0053410Y0081393D01*
X0053428Y0081403D01*
X0053445Y0081412D01*
X0053458Y0081419D01*
X0053466Y0081423D01*
X0053468Y0081426D01*
X0053489Y0081446D01*
X0053507Y0081474D01*
X0053523Y0081505D01*
X0053537Y0081537D01*
X0053549Y0081565D01*
X0053556Y0081588D01*
X0053558Y0081597D01*
X0053561Y0081604D01*
X0053563Y0081609D01*
X0053563Y0081611D01*
X0053570Y0081641D01*
X0053574Y0081674D01*
X0053579Y0081711D01*
X0053584Y0081753D01*
X0053591Y0081839D01*
X0053595Y0081924D01*
X0053598Y0081966D01*
X0053598Y0082003D01*
X0053598Y0082038D01*
X0053600Y0082071D01*
X0053600Y0082096D01*
X0053600Y0082115D01*
X0053600Y0082126D01*
X0053600Y0082131D01*
X0053600Y0082198D01*
X0053598Y0082261D01*
X0053595Y0082321D01*
X0053593Y0082372D01*
X0053591Y0082421D01*
X0053586Y0082465D01*
X0053584Y0082505D01*
X0053579Y0082539D01*
X0053574Y0082569D01*
X0053572Y0082597D01*
X0053568Y0082618D01*
X0053565Y0082637D01*
X0053563Y0082651D01*
X0053561Y0082660D01*
X0053558Y0082664D01*
X0053558Y0082667D01*
X0053544Y0082709D01*
X0053530Y0082746D01*
X0053514Y0082774D01*
X0053500Y0082797D01*
X0053489Y0082815D01*
X0053477Y0082827D01*
X0053470Y0082834D01*
X0053468Y0082836D01*
X0053445Y0082853D01*
X0053424Y0082864D01*
X0053401Y0082873D01*
X0053380Y0082878D01*
X0053361Y0082883D01*
X0053347Y0082885D01*
D02*
G37*
%LPD*%
D14*
X0027953Y0072441D02*
X0063779Y0072441D01*
X0027953Y0084645D02*
X0063779Y0084645D01*
X0027953Y0072441D02*
X0027953Y0076378D01*
X0046865Y0078405D02*
X0049817Y0078405D01*
D30*
X0057480Y0081102D02*
X0057480Y0083464D01*
X0051143Y0076767D02*
X0051143Y0076374D01*
X0053112Y0076771D02*
X0053112Y0076378D01*
X0042421Y0081102D02*
X0042421Y0083464D01*
X0034055Y0081102D02*
X0034055Y0083464D01*
X0033665Y0077362D02*
X0034059Y0077362D01*
X0033661Y0079330D02*
X0034055Y0079330D01*
X0057480Y0073819D02*
X0057480Y0076181D01*
X0042028Y0073819D02*
X0042421Y0073819D01*
X0042023Y0075787D02*
X0042417Y0075787D01*
X0056890Y0077419D02*
X0057283Y0077419D01*
X0056886Y0079388D02*
X0057279Y0079388D01*
X0033657Y0075787D02*
X0034051Y0075787D01*
X0033661Y0073819D02*
X0034055Y0073819D01*
M02*
