G75*
G70*
%OFA0B0*%
%FSLAX25Y25*%
%IPPOS*%
%LPD*%
%AMOC8*
5,1,8,0,0,1.08239X$1,22.5*
%
%AMM3*
21,1,0.023620,0.018900,0.000000,0.000000,180.000000*
21,1,0.018900,0.023620,0.000000,0.000000,180.000000*
1,1,0.004720,-0.009450,0.009450*
1,1,0.004720,0.009450,0.009450*
1,1,0.004720,0.009450,-0.009450*
1,1,0.004720,-0.009450,-0.009450*
%
%AMM4*
21,1,0.019680,0.019680,0.000000,0.000000,270.000000*
21,1,0.015750,0.023620,0.000000,0.000000,270.000000*
1,1,0.003940,-0.009840,-0.007870*
1,1,0.003940,-0.009840,0.007870*
1,1,0.003940,0.009840,0.007870*
1,1,0.003940,0.009840,-0.007870*
%
%AMM5*
21,1,0.033470,0.026770,0.000000,0.000000,270.000000*
21,1,0.026770,0.033470,0.000000,0.000000,270.000000*
1,1,0.006690,-0.013390,-0.013390*
1,1,0.006690,-0.013390,0.013390*
1,1,0.006690,0.013390,0.013390*
1,1,0.006690,0.013390,-0.013390*
%
%AMM6*
21,1,0.019680,0.019680,0.000000,0.000000,0.000000*
21,1,0.015750,0.023620,0.000000,0.000000,0.000000*
1,1,0.003940,0.007870,-0.009840*
1,1,0.003940,-0.007870,-0.009840*
1,1,0.003940,-0.007870,0.009840*
1,1,0.003940,0.007870,0.009840*
%
%ADD22M3*%
%ADD23M4*%
%ADD24M5*%
%ADD25M6*%
X0000000Y0000000D02*
%LPD*%
G01*
X0027559Y0072047D02*
G01*
G75*
D22*
X0055512Y0082283D02*
D03*
X0059449Y0082283D02*
D03*
X0044389Y0082283D02*
D03*
X0040452Y0082283D02*
D03*
X0036023Y0082283D02*
D03*
X0032086Y0082283D02*
D03*
X0055512Y0075000D02*
D03*
X0059449Y0075000D02*
D03*
D23*
X0052127Y0074803D02*
D03*
X0052127Y0078346D02*
D03*
D24*
X0048242Y0081516D02*
D03*
X0048242Y0075295D02*
D03*
D25*
X0035630Y0078346D02*
D03*
X0032087Y0078346D02*
D03*
X0043996Y0074803D02*
D03*
X0040453Y0074803D02*
D03*
X0058858Y0078404D02*
D03*
X0055315Y0078404D02*
D03*
X0032087Y0074803D02*
D03*
X0035630Y0074803D02*
D03*
M02*
