G75*
G70*
%OFA0B0*%
%FSLAX25Y25*%
%IPPOS*%
%LPD*%
%AMOC8*
5,1,8,0,0,1.08239X$1,22.5*
%
%AMM3*
21,1,0.023620,0.018900,0.000000,0.000000,180.000000*
21,1,0.018900,0.023620,0.000000,0.000000,180.000000*
1,1,0.004720,-0.009450,0.009450*
1,1,0.004720,0.009450,0.009450*
1,1,0.004720,0.009450,-0.009450*
1,1,0.004720,-0.009450,-0.009450*
%
%AMM4*
21,1,0.019680,0.019680,0.000000,0.000000,270.000000*
21,1,0.015750,0.023620,0.000000,0.000000,270.000000*
1,1,0.003940,-0.009840,-0.007870*
1,1,0.003940,-0.009840,0.007870*
1,1,0.003940,0.009840,0.007870*
1,1,0.003940,0.009840,-0.007870*
%
%AMM5*
21,1,0.033470,0.026770,0.000000,0.000000,270.000000*
21,1,0.026770,0.033470,0.000000,0.000000,270.000000*
1,1,0.006690,-0.013390,-0.013390*
1,1,0.006690,-0.013390,0.013390*
1,1,0.006690,0.013390,0.013390*
1,1,0.006690,0.013390,-0.013390*
%
%AMM6*
21,1,0.019680,0.019680,0.000000,0.000000,0.000000*
21,1,0.015750,0.023620,0.000000,0.000000,0.000000*
1,1,0.003940,0.007870,-0.009840*
1,1,0.003940,-0.007870,-0.009840*
1,1,0.003940,-0.007870,0.009840*
1,1,0.003940,0.007870,0.009840*
%
%ADD10C,0.02362*%
%ADD11O,0.00787X0.04823*%
%ADD12O,0.36614X0.00787*%
%ADD14C,0.00787*%
%ADD19C,0.01575*%
%ADD22M3*%
%ADD23M4*%
%ADD24M5*%
%ADD25M6*%
X0000000Y0000000D02*
%LPD*%
G01*
D10*
X0062992Y0082283D03*
D11*
X0027953Y0074508D03*
D12*
X0045866Y0084646D03*
X0045866Y0072441D03*
D10*
X0062992Y0078543D03*
X0062992Y0074803D03*
X0028740Y0078740D03*
X0028740Y0082283D03*
X0027559Y0072047D02*
G01*
G75*
G36*
X0058384Y0084449D02*
X0058027Y0084378D01*
X0057624Y0084108D01*
X0057598Y0084070D01*
X0057086Y0083839D01*
X0056863Y0083951D01*
X0056779Y0084007D01*
X0056456Y0084071D01*
X0054567Y0084071D01*
X0054244Y0084007D01*
X0054043Y0083873D01*
X0053910Y0083961D01*
X0053219Y0084099D01*
X0052528Y0083961D01*
X0051942Y0083570D01*
X0051550Y0082984D01*
X0051516Y0082814D01*
X0050926Y0082854D01*
X0050823Y0083369D01*
X0050532Y0083805D01*
X0050096Y0084096D01*
X0049581Y0084199D01*
X0049030Y0084199D01*
X0049030Y0081516D01*
X0049030Y0078832D01*
X0049581Y0078832D01*
X0049750Y0078866D01*
X0050246Y0078509D01*
X0050290Y0077893D01*
X0050234Y0077831D01*
X0049757Y0077542D01*
X0049581Y0077577D01*
X0046904Y0077577D01*
X0046543Y0077505D01*
X0046237Y0077301D01*
X0046032Y0076995D01*
X0045961Y0076634D01*
X0045961Y0076506D01*
X0045370Y0076327D01*
X0045351Y0076355D01*
X0045091Y0076529D01*
X0044783Y0076590D01*
X0043209Y0076590D01*
X0042901Y0076529D01*
X0042641Y0076355D01*
X0042552Y0076222D01*
X0042348Y0076176D01*
X0042101Y0076176D01*
X0041896Y0076222D01*
X0041808Y0076355D01*
X0041547Y0076529D01*
X0041240Y0076590D01*
X0039665Y0076590D01*
X0039358Y0076529D01*
X0039268Y0076469D01*
X0039116Y0076570D01*
X0038425Y0076708D01*
X0037734Y0076570D01*
X0037198Y0076854D01*
X0037113Y0076985D01*
X0037159Y0077055D01*
X0037220Y0077362D01*
X0037220Y0079330D01*
X0037159Y0079638D01*
X0036985Y0079898D01*
X0036972Y0079906D01*
X0036971Y0080134D01*
X0037111Y0080524D01*
X0037291Y0080559D01*
X0037564Y0080742D01*
X0037730Y0080991D01*
X0037842Y0081007D01*
X0038338Y0080961D01*
X0038358Y0080862D01*
X0038628Y0080458D01*
X0039031Y0080189D01*
X0039508Y0080094D01*
X0039665Y0080094D01*
X0039665Y0082283D01*
X0041240Y0082283D01*
X0041240Y0080094D01*
X0041397Y0080094D01*
X0041550Y0080124D01*
X0041961Y0080053D01*
X0042191Y0079696D01*
X0042263Y0079334D01*
X0042655Y0078748D01*
X0043241Y0078356D01*
X0043932Y0078219D01*
X0044623Y0078356D01*
X0045209Y0078748D01*
X0045386Y0079012D01*
X0045520Y0079062D01*
X0046114Y0079118D01*
X0046389Y0078935D01*
X0046904Y0078832D01*
X0047455Y0078832D01*
X0047455Y0081516D01*
X0047455Y0084199D01*
X0046904Y0084199D01*
X0046389Y0084096D01*
X0045930Y0083824D01*
X0045657Y0084007D01*
X0045334Y0084071D01*
X0043445Y0084071D01*
X0043122Y0084007D01*
X0043038Y0083951D01*
X0042816Y0083839D01*
X0042303Y0084070D01*
X0042277Y0084108D01*
X0041874Y0084378D01*
X0041518Y0084449D01*
X0041576Y0085039D01*
X0058325Y0085039D01*
X0058384Y0084449D01*
D02*
G37*
G36*
X0039387Y0084449D02*
X0039031Y0084378D01*
X0038628Y0084108D01*
X0038358Y0083704D01*
X0038338Y0083605D01*
X0037842Y0083560D01*
X0037730Y0083576D01*
X0037564Y0083824D01*
X0037291Y0084007D01*
X0036968Y0084071D01*
X0035078Y0084071D01*
X0034756Y0084007D01*
X0034482Y0083824D01*
X0034383Y0083675D01*
X0034163Y0083628D01*
X0033946Y0083628D01*
X0033727Y0083675D01*
X0033627Y0083824D01*
X0033354Y0084007D01*
X0033031Y0084071D01*
X0031141Y0084071D01*
X0030819Y0084007D01*
X0030545Y0083824D01*
X0029988Y0084053D01*
X0029585Y0084323D01*
X0028953Y0084449D01*
X0029012Y0085039D01*
X0039329Y0085039D01*
X0039387Y0084449D01*
D02*
G37*
G36*
X0028607Y0076352D02*
X0028510Y0075865D01*
X0028648Y0075174D01*
X0029039Y0074588D01*
X0029625Y0074196D01*
X0030316Y0074059D01*
X0030557Y0073511D01*
X0030732Y0073251D01*
X0030992Y0073077D01*
X0031299Y0073016D01*
X0032874Y0073016D01*
X0033181Y0073077D01*
X0033442Y0073251D01*
X0033530Y0073383D01*
X0033735Y0073429D01*
X0033982Y0073429D01*
X0034186Y0073383D01*
X0034275Y0073251D01*
X0034535Y0073077D01*
X0034842Y0073016D01*
X0036417Y0073016D01*
X0036725Y0073077D01*
X0036985Y0073251D01*
X0037668Y0073276D01*
X0037734Y0073232D01*
X0038425Y0073095D01*
X0039116Y0073232D01*
X0039121Y0073235D01*
X0039358Y0073077D01*
X0039665Y0073016D01*
X0041240Y0073016D01*
X0041547Y0073077D01*
X0041808Y0073251D01*
X0041896Y0073383D01*
X0042101Y0073429D01*
X0042348Y0073429D01*
X0042552Y0073383D01*
X0042641Y0073251D01*
X0042901Y0073077D01*
X0043209Y0073016D01*
X0044783Y0073016D01*
X0045091Y0073077D01*
X0045351Y0073251D01*
X0045454Y0073406D01*
X0046159Y0073406D01*
X0046237Y0073289D01*
X0046543Y0073085D01*
X0046904Y0073013D01*
X0049581Y0073013D01*
X0049942Y0073085D01*
X0050248Y0073289D01*
X0050836Y0073274D01*
X0051143Y0073213D01*
X0053112Y0073213D01*
X0053419Y0073274D01*
X0053679Y0073448D01*
X0054244Y0073276D01*
X0054567Y0073212D01*
X0056457Y0073212D01*
X0056779Y0073276D01*
X0057053Y0073459D01*
X0057152Y0073608D01*
X0057372Y0073655D01*
X0057589Y0073655D01*
X0057808Y0073608D01*
X0057908Y0073459D01*
X0058181Y0073276D01*
X0058504Y0073212D01*
X0060394Y0073212D01*
X0060716Y0073276D01*
X0060990Y0073459D01*
X0061517Y0073184D01*
X0062147Y0072763D01*
X0062779Y0072638D01*
X0062721Y0072047D01*
X0027559Y0072047D01*
X0027559Y0076269D01*
X0028052Y0076586D01*
X0028607Y0076352D01*
D02*
G37*
D14*
X0038376Y0074852D02*
X0038425Y0074901D01*
X0038140Y0074852D02*
X0040305Y0074852D01*
X0035568Y0074544D02*
X0035876Y0074852D01*
X0040305Y0074852D02*
X0040613Y0074544D01*
X0035876Y0074852D02*
X0038376Y0074852D01*
X0038090Y0074901D02*
X0038140Y0074852D01*
X0056299Y0081364D02*
X0056299Y0081496D01*
X0058268Y0079191D02*
X0058268Y0079395D01*
X0055512Y0082283D02*
X0056299Y0081496D01*
X0059055Y0078404D02*
X0059259Y0078404D01*
X0056299Y0081364D02*
X0058268Y0079395D01*
X0058268Y0079191D02*
X0059055Y0078404D01*
X0055315Y0078404D02*
X0055512Y0078207D01*
X0055512Y0075000D02*
X0055512Y0078207D01*
X0053219Y0082283D02*
X0055512Y0082283D01*
X0052254Y0078375D02*
X0055687Y0078375D01*
X0052226Y0078346D02*
X0052254Y0078375D01*
X0044291Y0074409D02*
X0047638Y0074409D01*
X0048833Y0074803D02*
X0052226Y0074803D01*
X0048341Y0075295D02*
X0048833Y0074803D01*
X0059329Y0074795D02*
X0062992Y0074795D01*
X0053214Y0082288D02*
X0053219Y0082293D01*
X0030316Y0075865D02*
X0030618Y0075564D01*
X0031496Y0075564D01*
X0031496Y0075529D02*
X0031496Y0075564D01*
X0031496Y0075529D02*
X0031890Y0075135D01*
X0032087Y0074803D02*
X0032087Y0078346D01*
X0029041Y0078932D02*
X0031299Y0081189D01*
X0031299Y0081496D01*
X0028740Y0078346D02*
X0028904Y0078346D01*
X0029041Y0078483D02*
X0029041Y0078932D01*
X0028904Y0078346D02*
X0029041Y0078483D01*
X0031299Y0081496D02*
X0032087Y0082283D01*
X0035728Y0078641D02*
X0035728Y0081988D01*
X0035433Y0078346D02*
X0035728Y0078641D01*
X0035728Y0081988D02*
X0036024Y0082283D01*
D12*
X0045866Y0084645D02*
D03*
X0045866Y0072441D02*
D03*
D11*
X0027953Y0074508D02*
D03*
D19*
X0059842Y0081543D02*
X0062842Y0078543D01*
X0059842Y0081543D02*
X0059842Y0081890D01*
X0062842Y0078543D02*
X0062992Y0078543D01*
X0059449Y0082283D02*
X0059842Y0081890D01*
X0044291Y0082052D02*
X0044505Y0082266D01*
X0043932Y0080238D02*
X0044291Y0080597D01*
X0044291Y0082052D01*
X0043932Y0080025D02*
X0043932Y0080238D01*
D10*
X0062992Y0082283D02*
D03*
X0062992Y0078543D02*
D03*
X0062992Y0074803D02*
D03*
X0028740Y0078740D02*
D03*
X0028740Y0082283D02*
D03*
X0038425Y0074901D02*
D03*
X0053219Y0082293D02*
D03*
X0043932Y0080025D02*
D03*
X0030316Y0075865D02*
D03*
X0028799Y0073332D02*
D03*
X0041501Y0077894D02*
D03*
X0038762Y0078950D02*
D03*
D22*
X0055512Y0082283D02*
D03*
X0059449Y0082283D02*
D03*
X0044389Y0082283D02*
D03*
X0040452Y0082283D02*
D03*
X0036023Y0082283D02*
D03*
X0032086Y0082283D02*
D03*
X0055512Y0075000D02*
D03*
X0059449Y0075000D02*
D03*
D23*
X0052127Y0074803D02*
D03*
X0052127Y0078346D02*
D03*
D24*
X0048242Y0081516D02*
D03*
X0048242Y0075295D02*
D03*
D25*
X0035630Y0078346D02*
D03*
X0032087Y0078346D02*
D03*
X0043996Y0074803D02*
D03*
X0040453Y0074803D02*
D03*
X0058858Y0078404D02*
D03*
X0055315Y0078404D02*
D03*
X0032087Y0074803D02*
D03*
X0035630Y0074803D02*
D03*
M02*
