G75*
G70*
%OFA0B0*%
%FSLAX25Y25*%
%IPPOS*%
%LPD*%
%AMOC8*
5,1,8,0,0,1.08239X$1,22.5*
%
%AMM10*
21,1,0.025200,0.019680,0.000000,0.000000,0.000000*
21,1,0.015750,0.029130,0.000000,0.000000,0.000000*
1,1,0.009450,0.007870,-0.009840*
1,1,0.009450,-0.007870,-0.009840*
1,1,0.009450,-0.007870,0.009840*
1,1,0.009450,0.007870,0.009840*
%
%AMM7*
21,1,0.029130,0.018900,0.000000,0.000000,180.000000*
21,1,0.018900,0.029130,0.000000,0.000000,180.000000*
1,1,0.010240,-0.009450,0.009450*
1,1,0.010240,0.009450,0.009450*
1,1,0.010240,0.009450,-0.009450*
1,1,0.010240,-0.009450,-0.009450*
%
%AMM8*
21,1,0.025200,0.019680,0.000000,0.000000,270.000000*
21,1,0.015750,0.029130,0.000000,0.000000,270.000000*
1,1,0.009450,-0.009840,-0.007870*
1,1,0.009450,-0.009840,0.007870*
1,1,0.009450,0.009840,0.007870*
1,1,0.009450,0.009840,-0.007870*
%
%AMM9*
21,1,0.038980,0.026770,0.000000,0.000000,270.000000*
21,1,0.026770,0.038980,0.000000,0.000000,270.000000*
1,1,0.012210,-0.013390,-0.013390*
1,1,0.012210,-0.013390,0.013390*
1,1,0.012210,0.013390,0.013390*
1,1,0.012210,0.013390,-0.013390*
%
%ADD10C,0.02362*%
%ADD21C,0.02913*%
%ADD26M7*%
%ADD27M8*%
%ADD28M9*%
%ADD29M10*%
X0000000Y0000000D02*
%LPD*%
G01*
D10*
X0062992Y0082283D03*
X0062992Y0078543D03*
X0062992Y0074803D03*
X0028740Y0078740D03*
X0028740Y0082283D03*
X0027559Y0072047D02*
G01*
G75*
D21*
X0062992Y0082283D02*
D03*
X0062992Y0078543D02*
D03*
X0062992Y0074803D02*
D03*
X0028740Y0078740D02*
D03*
X0028740Y0082283D02*
D03*
D26*
X0055512Y0082283D02*
D03*
X0059449Y0082283D02*
D03*
X0044389Y0082283D02*
D03*
X0040452Y0082283D02*
D03*
X0036023Y0082283D02*
D03*
X0032086Y0082283D02*
D03*
X0055512Y0075000D02*
D03*
X0059449Y0075000D02*
D03*
D27*
X0052127Y0074803D02*
D03*
X0052127Y0078346D02*
D03*
D28*
X0048242Y0081516D02*
D03*
X0048242Y0075295D02*
D03*
D29*
X0035630Y0078346D02*
D03*
X0032087Y0078346D02*
D03*
X0043996Y0074803D02*
D03*
X0040453Y0074803D02*
D03*
X0058858Y0078404D02*
D03*
X0055315Y0078404D02*
D03*
X0032087Y0074803D02*
D03*
X0035630Y0074803D02*
D03*
M02*
