G75*
G70*
%OFA0B0*%
%FSLAX25Y25*%
%IPPOS*%
%LPD*%
%AMOC8*
5,1,8,0,0,1.08239X$1,22.5*
%
%ADD10C,0.02362*%
%ADD11O,0.00787X0.04823*%
%ADD12O,0.36614X0.00787*%
X0027559Y0072047D02*
G01*
G75*
G36*
X0062779Y0084449D02*
X0062147Y0084323D01*
X0061431Y0083844D01*
X0060952Y0083128D01*
X0060784Y0082283D01*
X0060952Y0081438D01*
X0061431Y0080722D01*
X0062147Y0080243D01*
X0062992Y0080075D01*
X0062992Y0077011D01*
X0062147Y0076843D01*
X0061431Y0076364D01*
X0060952Y0075648D01*
X0060784Y0074803D01*
X0060952Y0073958D01*
X0061431Y0073242D01*
X0062147Y0072763D01*
X0062779Y0072638D01*
X0062721Y0072047D01*
X0027559Y0072047D01*
X0027559Y0076269D01*
X0028052Y0076586D01*
X0028607Y0076352D01*
X0028510Y0075865D01*
X0028648Y0075174D01*
X0029039Y0074588D01*
X0029625Y0074196D01*
X0030316Y0074059D01*
X0031008Y0074196D01*
X0031594Y0074588D01*
X0031985Y0075174D01*
X0032123Y0075865D01*
X0031985Y0076556D01*
X0031594Y0077142D01*
X0031174Y0077423D01*
X0030972Y0077665D01*
X0030835Y0078171D01*
X0030948Y0078740D01*
X0030780Y0079585D01*
X0030435Y0080101D01*
X0030347Y0080512D01*
X0030435Y0080922D01*
X0030780Y0081438D01*
X0030948Y0082283D01*
X0030780Y0083128D01*
X0030301Y0083844D01*
X0029585Y0084323D01*
X0028953Y0084449D01*
X0029012Y0085039D01*
X0062721Y0085039D01*
X0062779Y0084449D01*
D02*
G37*
%LPC*%
G36*
X0053219Y0084099D02*
X0052528Y0083961D01*
X0051942Y0083570D01*
X0051550Y0082984D01*
X0051413Y0082293D01*
X0051550Y0081601D01*
X0051942Y0081015D01*
X0052528Y0080624D01*
X0053219Y0080486D01*
X0053910Y0080624D01*
X0054496Y0081015D01*
X0054888Y0081601D01*
X0055025Y0082293D01*
X0054888Y0082984D01*
X0054496Y0083570D01*
X0053910Y0083961D01*
X0053219Y0084099D01*
D02*
G37*
G36*
X0043932Y0081831D02*
X0043241Y0081694D01*
X0042655Y0081302D01*
X0042263Y0080716D01*
X0042126Y0080025D01*
X0042263Y0079334D01*
X0042655Y0078748D01*
X0043241Y0078356D01*
X0043932Y0078219D01*
X0044623Y0078356D01*
X0045209Y0078748D01*
X0045601Y0079334D01*
X0045738Y0080025D01*
X0045601Y0080716D01*
X0045209Y0081302D01*
X0044623Y0081694D01*
X0043932Y0081831D01*
D02*
G37*
G36*
X0038425Y0076708D02*
X0037734Y0076570D01*
X0037148Y0076179D01*
X0036756Y0075593D01*
X0036619Y0074901D01*
X0036756Y0074210D01*
X0037148Y0073624D01*
X0037734Y0073232D01*
X0038425Y0073095D01*
X0039116Y0073232D01*
X0039702Y0073624D01*
X0040094Y0074210D01*
X0040232Y0074901D01*
X0040094Y0075593D01*
X0039702Y0076179D01*
X0039116Y0076570D01*
X0038425Y0076708D01*
D02*
G37*
%LPD*%
D12*
X0045866Y0084645D02*
D03*
X0045866Y0072441D02*
D03*
D11*
X0027953Y0074508D02*
D03*
D10*
X0062992Y0078543D02*
D03*
X0028799Y0073332D02*
D03*
X0041501Y0077894D02*
D03*
X0038762Y0078950D02*
D03*
M02*
