G75*
G70*
%OFA0B0*%
%FSLAX25Y25*%
%IPPOS*%
%LPD*%
%AMOC8*
5,1,8,0,0,1.08239X$1,22.5*
%
%ADD13C,0.00591*%
%ADD14C,0.00787*%
X0000000Y0000000D02*
%LPD*%
G01*
D13*
X0028117Y0088265D02*
X0028117Y0090628D01*
X0028117Y0090628D02*
X0028904Y0088940D01*
X0028904Y0088940D02*
X0029692Y0090628D01*
X0029692Y0090628D02*
X0029692Y0088265D01*
X0032054Y0088265D02*
X0030704Y0088265D01*
X0031379Y0088265D02*
X0031379Y0090628D01*
X0031379Y0090628D02*
X0031154Y0090290D01*
X0031154Y0090290D02*
X0030929Y0090065D01*
X0030929Y0090065D02*
X0030704Y0089953D01*
D14*
X0027953Y0084646D02*
X0063780Y0084646D01*
X0027953Y0072441D02*
X0027953Y0076378D01*
X0027953Y0072441D02*
X0063780Y0072441D01*
X0027559Y0072047D02*
G01*
G75*
D13*
X0030739Y0084220D02*
X0029952Y0084220D01*
X0030739Y0084220D01*
X0046349Y0084153D02*
X0045561Y0084153D01*
X0046349Y0084153D01*
D14*
X0027953Y0072441D02*
X0063779Y0072441D01*
X0027953Y0084645D02*
X0063779Y0084645D01*
X0027953Y0072441D02*
X0027953Y0076378D01*
X0034488Y0072429D02*
X0041575Y0072429D01*
X0034488Y0084633D02*
X0041575Y0084633D01*
X0041575Y0084437D02*
X0041575Y0084633D01*
X0034488Y0084437D02*
X0034488Y0084633D01*
X0041575Y0072429D02*
X0041575Y0072626D01*
X0034488Y0072429D02*
X0034488Y0072626D01*
X0050138Y0072429D02*
X0057224Y0072429D01*
X0050138Y0084633D02*
X0057224Y0084633D01*
X0057224Y0084437D02*
X0057224Y0084633D01*
X0050138Y0084437D02*
X0050138Y0084633D01*
X0057224Y0072429D02*
X0057224Y0072626D01*
X0050138Y0072429D02*
X0050138Y0072626D01*
M02*
